<?xml version="1.0" standalone="no"?>
<!DOCTYPE svg PUBLIC "-//W3C//DTD SVG 20010904//EN"
 "http://www.w3.org/TR/2001/REC-SVG-20010904/DTD/svg10.dtd">
<svg version="1.0" xmlns="http://www.w3.org/2000/svg"
 width="394.000000pt" height="392.000000pt" viewBox="0 0 394.000000 392.000000"
 preserveAspectRatio="xMidYMid meet">

<g transform="translate(0.000000,392.000000) scale(0.100000,-0.100000)"
fill="#000000" stroke="none">
<path d="M1760 3769 c-374 -43 -749 -210 -1022 -456 -179 -161 -306 -327 -408
-533 -128 -258 -181 -483 -181 -775 0 -183 23 -326 81 -506 42 -132 162 -385
192 -403 31 -19 369 16 618 64 594 115 989 338 1225 695 170 257 259 550 269
884 3 121 8 158 24 193 70 153 200 156 367 8 l73 -65 -33 -34 c-51 -50 -69
-96 -68 -171 1 -120 59 -231 217 -419 85 -101 135 -184 150 -246 21 -85 25
-201 10 -273 -33 -160 -89 -245 -319 -482 -202 -209 -262 -296 -302 -435 -14
-48 -32 -455 -21 -455 3 0 50 21 104 46 527 244 894 701 1016 1264 20 93 22
133 22 340 0 206 -2 248 -22 337 -60 277 -185 541 -357 753 -346 430 -890 685
-1447 679 -62 -1 -147 -5 -188 -10z m480 -104 c612 -99 1114 -500 1341 -1072
96 -241 131 -571 88 -833 -72 -450 -334 -864 -708 -1118 -83 -57 -211 -132
-224 -132 -4 0 -7 26 -6 58 l0 57 101 65 c177 115 375 323 490 515 84 140 152
319 190 504 32 153 32 449 0 603 -85 410 -310 753 -654 1001 -98 69 -310 175
-423 210 -385 120 -794 94 -1153 -74 -389 -181 -699 -525 -835 -929 -138 -406
-107 -846 84 -1221 27 -52 49 -98 49 -102 0 -4 -26 -7 -59 -7 l-58 0 -53 113
c-67 143 -111 273 -141 417 -19 95 -23 146 -23 290 -1 183 8 258 51 419 141
537 566 984 1108 1166 268 89 562 114 835 70z m-15 -139 c197 -36 413 -126
595 -247 125 -82 325 -282 404 -402 117 -179 195 -363 237 -562 31 -146 34
-448 6 -590 -82 -405 -316 -761 -652 -991 -89 -61 -94 -60 -75 30 14 70 67
178 117 241 22 28 107 120 189 205 211 219 276 315 315 468 35 136 17 330 -40
446 -16 34 -53 88 -80 121 -235 281 -285 388 -231 499 23 49 29 52 152 79 l58
12 -83 55 c-45 30 -109 82 -142 115 -77 76 -170 125 -253 132 -90 8 -144 -10
-203 -69 -84 -84 -91 -106 -100 -313 -8 -178 -22 -274 -58 -390 -10 -33 -22
-73 -25 -90 -14 -62 -145 -289 -243 -423 -72 -98 -182 -212 -262 -272 -184
-138 -527 -270 -870 -334 -74 -14 -308 -46 -337 -46 -15 0 -127 236 -159 334
-54 167 -69 267 -69 466 -1 215 14 311 74 491 79 238 193 423 370 599 262 262
535 394 935 454 63 9 344 -3 430 -18z"/>
<path d="M1284 3130 c-82 -46 -123 -103 -199 -270 -68 -151 -89 -180 -133
-180 -30 0 -58 -15 -66 -35 -5 -13 2 -15 42 -13 26 1 110 -2 187 -6 77 -4 150
-4 162 1 26 10 135 162 126 176 -3 5 -29 -16 -57 -48 -42 -47 -59 -58 -96 -66
-63 -12 -198 -11 -205 1 -4 6 10 29 30 52 19 23 46 65 59 93 105 223 117 245
145 260 19 9 41 12 61 9 24 -5 36 -2 55 16 13 13 22 27 19 31 -11 19 -80 8
-130 -21z"/>
<path d="M1675 2941 c-56 -5 -77 -12 -108 -35 -21 -16 -42 -37 -47 -47 -12
-22 -13 -69 -2 -69 16 0 32 25 32 51 0 32 21 56 56 65 28 7 74 -2 74 -16 0 -5
-46 -56 -102 -114 -85 -86 -110 -106 -141 -112 -21 -3 -41 -13 -44 -21 -16
-43 50 -20 112 38 37 34 61 49 91 54 24 3 44 2 48 -3 3 -6 -1 -29 -9 -52 -18
-52 -12 -63 28 -55 55 11 67 16 62 25 -3 5 -13 6 -21 3 -26 -10 -33 17 -17 71
15 51 57 179 69 210 3 9 2 15 -2 14 -5 -1 -40 -4 -79 -7z m15 -88 c-1 -37 -39
-103 -59 -103 -53 0 -53 11 -4 65 52 58 63 64 63 38z"/>
<path d="M1175 2529 c-165 -35 -269 -107 -299 -210 -9 -29 -16 -59 -16 -66 0
-17 24 -16 60 2 24 12 30 22 30 49 0 47 38 113 85 147 41 29 129 58 141 46 4
-4 -8 -35 -26 -69 -54 -104 -116 -218 -163 -303 l-44 -80 -64 -6 c-72 -6 -102
-16 -96 -33 5 -14 282 -11 338 4 61 17 48 33 -22 28 -44 -3 -62 -1 -66 8 -3 7
15 49 39 94 39 73 46 80 78 85 151 22 251 81 301 177 26 51 24 82 -7 107 -23
18 -51 25 -149 35 -16 2 -70 -5 -120 -15z m183 -35 c57 -40 0 -163 -100 -215
-36 -18 -98 -26 -111 -13 -5 5 93 203 116 232 13 17 68 15 95 -4z"/>
<path d="M1515 2283 c-48 -25 -95 -79 -95 -108 0 -42 33 -28 41 17 9 56 24 68
85 68 30 0 54 -4 54 -8 0 -5 -49 -56 -108 -114 -92 -90 -114 -107 -150 -113
-44 -7 -61 -20 -45 -36 16 -16 76 10 123 55 46 44 101 64 131 46 11 -7 11 -15
1 -43 -20 -57 -17 -69 21 -63 96 15 133 16 210 6 97 -13 109 -10 170 48 38 37
52 92 23 92 -20 0 -39 -27 -32 -45 8 -23 -4 -45 -31 -56 -32 -12 -193 0 -193
15 1 6 66 62 145 125 80 63 145 117 145 120 0 3 -46 6 -102 6 l-101 0 -33 -45
c-18 -25 -31 -47 -29 -49 3 -2 21 11 40 28 34 29 40 31 88 25 51 -7 64 -11 56
-18 -2 -2 -68 -53 -147 -115 -139 -108 -176 -127 -188 -96 -4 8 13 73 37 143
l44 127 -65 2 c-43 1 -75 -4 -95 -14z m90 -80 c-3 -15 -13 -42 -20 -60 -12
-29 -19 -33 -49 -33 -20 0 -36 3 -36 6 0 10 94 113 104 113 4 1 5 -11 1 -26z"/>
<path d="M2649 2901 c-23 -19 -24 -19 -5 -40 24 -26 48 -27 71 -1 17 19 17 21
0 40 -23 25 -36 25 -66 1z"/>
<path d="M1410 859 c-109 -13 -271 -55 -380 -99 -122 -48 -260 -112 -260 -119
0 -9 161 -121 238 -165 159 -92 386 -172 573 -201 166 -27 442 -31 595 -10 71
10 134 20 141 24 16 8 -44 144 -103 233 -102 153 -232 251 -418 314 -81 28
-263 39 -386 23z m364 -90 c118 -40 196 -89 289 -180 48 -47 87 -91 87 -97 0
-18 -106 -25 -284 -19 -190 7 -300 26 -471 82 -104 34 -315 131 -315 145 0 8
150 55 229 71 160 33 362 32 465 -2z m-676 -122 c252 -146 603 -229 902 -213
64 3 129 8 145 12 29 5 32 2 58 -48 l28 -53 -33 -8 c-18 -4 -108 -10 -199 -14
-336 -12 -618 43 -871 171 -110 56 -218 122 -218 134 0 9 90 50 113 51 10 1
44 -14 75 -32z"/>
</g>
</svg>
